<svg xmlns="http://www.w3.org/2000/svg" width="390" height="844" viewBox="0 0 390 844">
<title>Home, set</title>
<style>@import url('https://fonts.googleapis.com/css2?family=Chivo:wght@300..800&amp;display=swap');</style>
<defs>
<radialGradient id="hBg" gradientUnits="userSpaceOnUse" cx="117" cy="185.68" r="468" gradientTransform="translate(117 185.68) scale(1 1.4423) translate(-117 -185.68)"><stop offset="0" stop-color="#F2ECE1"/><stop offset="0.55" stop-color="#E6DECF"/><stop offset="1" stop-color="#D9CFBE"/></radialGradient>
<radialGradient id="hSet" cx="0.42" cy="0.3" r="0.75"><stop offset="0" stop-color="#FFFEFB"/><stop offset="0.6" stop-color="#F1EBDF"/><stop offset="1" stop-color="#E2D9C9"/></radialGradient>
<linearGradient id="hBtn" x1="0" y1="0" x2="0" y2="1"><stop offset="0" stop-color="#E4553C"/><stop offset="1" stop-color="#C9391F"/></linearGradient>
<radialGradient id="hDotRed" cx="0.4" cy="0.35" r="0.7"><stop offset="0" stop-color="#FF8A6E"/><stop offset="0.6" stop-color="#D2402A"/></radialGradient>
<filter id="hShadow6" x="-50%" y="-50%" width="200%" height="200%"><feGaussianBlur stdDeviation="6"/></filter>
<filter id="hShadow7" x="-30%" y="-80%" width="160%" height="260%"><feGaussianBlur stdDeviation="7"/></filter>
<filter id="hGlow" x="-100%" y="-100%" width="300%" height="300%"><feGaussianBlur stdDeviation="3"/></filter>
</defs>
<rect id="background" width="390" height="844" fill="url(#hBg)"/>
<g id="header">
<text x="24.00" y="77.50" font-family="Chivo" font-size="13" font-weight="600" letter-spacing="2.24" fill="#1D1A16">SAT 26 SEP</text>
<circle cx="27.5" cy="90" r="3.5" fill="#B3A994"/>
<circle cx="27.5" cy="90.4" r="3.1" fill="none" stroke="#000000" stroke-opacity="0.15" stroke-width="0.8"/>
<text x="37.00" y="93.50" font-family="Chivo" font-size="11" font-weight="600" letter-spacing="2.24" fill="#7A7163">6 APPS LOCKED</text>
<g id="settings-button">
<circle cx="344" cy="87" r="22" fill="#3B2F1E" fill-opacity="0.16" filter="url(#hShadow6)"/>
<circle cx="344" cy="83" r="22" fill="#CDC3B1"/>
<circle cx="344" cy="81" r="22" fill="url(#hSet)"/>
<path d="M325.55 70.35 A21.3 21.3 0 0 1 362.45 70.35" fill="none" stroke="#FFFFFF" stroke-width="1"/>
<g transform="translate(334 71) scale(0.8333)" fill="none" stroke="#1D1A16" stroke-width="1.8" stroke-linecap="round" stroke-linejoin="round">
<path d="M4 8h9"/><path d="M17 8h3"/><circle cx="15" cy="8" r="2"/><path d="M4 16h3"/><path d="M11 16h9"/><circle cx="9" cy="16" r="2"/>
</g>
</g>
</g>
<g id="time-left">
<text x="24.00" y="138.00" font-family="Chivo" font-size="12" font-weight="600" letter-spacing="1.68" fill="#7A7163">LEFT TODAY</text>
<text x="24.00" y="237.00" font-family="Chivo" font-size="112" font-weight="600" letter-spacing="-3.36" fill="#1D1A16" style="font-variant-numeric: tabular-nums">1:12</text>
</g>
<g id="timer" transform="translate(15 302.02)">
<defs>
<radialGradient id="w1sHousingTop" cx="0.36" cy="0.28" r="0.82"><stop offset="0" stop-color="#FFFEFB"></stop><stop offset="0.45" stop-color="#F6F1E8"></stop><stop offset="0.85" stop-color="#E9E1D3"></stop><stop offset="1" stop-color="#DAD0BE"></stop></radialGradient>
<linearGradient id="w1sHousingSide" x1="0" y1="0" x2="1" y2="0"><stop offset="0" stop-color="#CFC6B5"></stop><stop offset="0.28" stop-color="#E6DECF"></stop><stop offset="0.62" stop-color="#C8BDAA"></stop><stop offset="1" stop-color="#A09481"></stop></linearGradient>
<linearGradient id="w1sSideShade" x1="0" y1="0" x2="0" y2="1"><stop offset="0.55" stop-color="#3B2F1E" stop-opacity="0"></stop><stop offset="1" stop-color="#3B2F1E" stop-opacity="0.28"></stop></linearGradient>
<linearGradient id="w1sBevel" x1="0.15" y1="0.1" x2="0.85" y2="0.9"><stop offset="0" stop-color="#FFFFFF" stop-opacity="0.95"></stop><stop offset="0.5" stop-color="#FFFFFF" stop-opacity="0.1"></stop><stop offset="1" stop-color="#8F826C" stop-opacity="0.55"></stop></linearGradient>
<linearGradient id="w1sDialSide" x1="0" y1="0" x2="1" y2="0"><stop offset="0" stop-color="#D9D0C0"></stop><stop offset="0.35" stop-color="#E8E1D4"></stop><stop offset="1" stop-color="#A99D89"></stop></linearGradient>
<radialGradient id="w1sFace" cx="0.4" cy="0.32" r="0.78"><stop offset="0" stop-color="#FFFFFD"></stop><stop offset="0.6" stop-color="#F8F3EA"></stop><stop offset="1" stop-color="#EDE5D7"></stop></radialGradient>
<radialGradient id="w1sFaceAO" cx="0.5" cy="0.5" r="0.5"><stop offset="0.86" stop-color="#46371F" stop-opacity="0"></stop><stop offset="1" stop-color="#46371F" stop-opacity="0.16"></stop></radialGradient>
<linearGradient id="w1sGripTop" gradientUnits="userSpaceOnUse" x1="110" y1="110" x2="250" y2="250" gradientTransform="rotate(180 180 180)"><stop offset="0" stop-color="#FFFFFF"></stop><stop offset="0.5" stop-color="#F4EEE4"></stop><stop offset="1" stop-color="#DDD3C2"></stop></linearGradient>
<linearGradient id="w1sGripRim" gradientUnits="userSpaceOnUse" x1="120" y1="120" x2="240" y2="240" gradientTransform="rotate(180 180 180)"><stop offset="0" stop-color="#FFFFFF" stop-opacity="1"></stop><stop offset="0.55" stop-color="#FFFFFF" stop-opacity="0"></stop><stop offset="1" stop-color="#9C907C" stop-opacity="0.6"></stop></linearGradient>
<linearGradient id="w1sGripSide" gradientUnits="userSpaceOnUse" x1="90" y1="0" x2="270" y2="0" gradientTransform="rotate(180 180 180)"><stop offset="0" stop-color="#D3C9B7"></stop><stop offset="1" stop-color="#A89C87"></stop></linearGradient>
<linearGradient id="w1sPointer" x1="0" y1="0" x2="1" y2="0"><stop offset="0" stop-color="#EE6A4F"></stop><stop offset="0.45" stop-color="#D2402A"></stop><stop offset="1" stop-color="#A42C1B"></stop></linearGradient>
<radialGradient id="w1sRivet" cx="0.35" cy="0.3" r="0.8"><stop offset="0" stop-color="#FFFFFF"></stop><stop offset="0.5" stop-color="#C9CCCF"></stop><stop offset="1" stop-color="#7D8286"></stop></radialGradient>
<filter id="w1sBlur2" x="-20%" y="-20%" width="140%" height="140%"><feGaussianBlur stdDeviation="2.5"></feGaussianBlur></filter>
<filter id="w1sBlur5" x="-20%" y="-20%" width="140%" height="140%"><feGaussianBlur stdDeviation="5"></feGaussianBlur></filter>
<filter id="w1sBlur12" x="-30%" y="-30%" width="160%" height="160%"><feGaussianBlur stdDeviation="12"></feGaussianBlur></filter>
<filter id="w1sBlur20" x="-40%" y="-40%" width="180%" height="180%"><feGaussianBlur stdDeviation="20"></feGaussianBlur></filter>
<filter id="w1sGrain" x="0" y="0" width="100%" height="100%"><feTurbulence type="fractalNoise" baseFrequency="1.1" numOctaves="2" stitchTiles="stitch" result="n"></feTurbulence><feColorMatrix in="n" type="matrix" values="0 0 0 0 0.22  0 0 0 0 0.17  0 0 0 0 0.1  0 0 0 0.32 -0.13" result="g"></feColorMatrix><feComposite in="g" in2="SourceAlpha" operator="in"></feComposite></filter>
</defs>
<ellipse cx="180" cy="364" rx="136" ry="15" fill="#3B2F1E" fill-opacity="0.34" filter="url(#w1sBlur12)"></ellipse>
<circle cx="184" cy="210" r="166" fill="#3B2F1E" fill-opacity="0.2" filter="url(#w1sBlur20)"></circle>
<circle cx="180" cy="197" r="170" fill="url(#w1sHousingSide)"></circle>
<circle cx="180" cy="197" r="170" fill="url(#w1sSideShade)"></circle>
<circle cx="180" cy="180" r="170" fill="url(#w1sHousingTop)"></circle>
<circle cx="180" cy="180" r="170" fill="#000000" filter="url(#w1sGrain)"></circle>
<circle cx="180" cy="180" r="168.8" fill="none" stroke="url(#w1sBevel)" stroke-width="2.4"></circle>
<circle cx="180" cy="180" r="161" fill="none" stroke="#FFFFFF" stroke-opacity="0.7" stroke-width="1"></circle>
<circle cx="180" cy="180" r="160" fill="none" stroke="#C9BEAB" stroke-opacity="0.8" stroke-width="1"></circle>
<path d="M18.12 145.59 A165.5 165.5 0 0 1 128.86 22.6" fill="none" stroke="#FFFFFF" stroke-width="3" stroke-linecap="round" stroke-opacity="0.9" filter="url(#w1sBlur2)"></path>
<path d="M336.93 237.12 A167 167 0 0 1 237.12 336.93" fill="none" stroke="#FFFFFF" stroke-width="2" stroke-linecap="round" stroke-opacity="0.45" filter="url(#w1sBlur2)"></path>
<circle cx="184" cy="189" r="151" fill="#3B2F1E" fill-opacity="0.32" filter="url(#w1sBlur5)"></circle>
<circle cx="180" cy="180.5" r="152.6" fill="#8E826F"></circle>
<circle cx="180" cy="185" r="151" fill="url(#w1sDialSide)"></circle>
<line x1="180" y1="331" x2="180" y2="336" stroke="#4A3D2A" stroke-opacity="0.35" stroke-width="1.1"></line>
<line x1="170.12" y1="330.68" x2="170.12" y2="335.68" stroke="#4A3D2A" stroke-opacity="0.35" stroke-width="1.1"></line>
<line x1="160.29" y1="329.71" x2="160.29" y2="334.71" stroke="#4A3D2A" stroke-opacity="0.34" stroke-width="1.1"></line>
<line x1="150.54" y1="328.1" x2="150.54" y2="333.1" stroke="#4A3D2A" stroke-opacity="0.34" stroke-width="1.1"></line>
<line x1="140.92" y1="325.85" x2="140.92" y2="330.85" stroke="#4A3D2A" stroke-opacity="0.33" stroke-width="1.1"></line>
<line x1="131.46" y1="322.99" x2="131.46" y2="327.99" stroke="#4A3D2A" stroke-opacity="0.32" stroke-width="1.1"></line>
<line x1="122.21" y1="319.51" x2="122.21" y2="324.51" stroke="#4A3D2A" stroke-opacity="0.32" stroke-width="1.1"></line>
<line x1="113.21" y1="315.43" x2="113.21" y2="320.43" stroke="#4A3D2A" stroke-opacity="0.31" stroke-width="1.1"></line>
<line x1="104.5" y1="310.77" x2="104.5" y2="315.77" stroke="#4A3D2A" stroke-opacity="0.31" stroke-width="1.1"></line>
<line x1="96.11" y1="305.55" x2="96.11" y2="310.55" stroke="#4A3D2A" stroke-opacity="0.3" stroke-width="1.1"></line>
<line x1="88.08" y1="299.8" x2="88.08" y2="304.8" stroke="#4A3D2A" stroke-opacity="0.29" stroke-width="1.1"></line>
<line x1="80.44" y1="293.53" x2="80.44" y2="298.53" stroke="#4A3D2A" stroke-opacity="0.29" stroke-width="1.1"></line>
<line x1="73.23" y1="286.77" x2="73.23" y2="291.77" stroke="#4A3D2A" stroke-opacity="0.28" stroke-width="1.1"></line>
<line x1="66.47" y1="279.56" x2="66.47" y2="284.56" stroke="#4A3D2A" stroke-opacity="0.27" stroke-width="1.1"></line>
<line x1="60.2" y1="271.92" x2="60.2" y2="276.92" stroke="#4A3D2A" stroke-opacity="0.27" stroke-width="1.1"></line>
<line x1="54.45" y1="263.89" x2="54.45" y2="268.89" stroke="#4A3D2A" stroke-opacity="0.26" stroke-width="1.1"></line>
<line x1="49.23" y1="255.5" x2="49.23" y2="260.5" stroke="#4A3D2A" stroke-opacity="0.25" stroke-width="1.1"></line>
<line x1="44.57" y1="246.79" x2="44.57" y2="251.79" stroke="#4A3D2A" stroke-opacity="0.25" stroke-width="1.1"></line>
<line x1="40.49" y1="237.79" x2="40.49" y2="242.79" stroke="#4A3D2A" stroke-opacity="0.24" stroke-width="1.1"></line>
<line x1="37.01" y1="228.54" x2="37.01" y2="233.54" stroke="#4A3D2A" stroke-opacity="0.24" stroke-width="1.1"></line>
<line x1="34.15" y1="219.08" x2="34.15" y2="224.08" stroke="#4A3D2A" stroke-opacity="0.23" stroke-width="1.1"></line>
<line x1="31.9" y1="209.46" x2="31.9" y2="214.46" stroke="#4A3D2A" stroke-opacity="0.22" stroke-width="1.1"></line>
<line x1="30.29" y1="199.71" x2="30.29" y2="204.71" stroke="#4A3D2A" stroke-opacity="0.22" stroke-width="1.1"></line>
<line x1="329.71" y1="199.71" x2="329.71" y2="204.71" stroke="#4A3D2A" stroke-opacity="0.36" stroke-width="1.1"></line>
<line x1="328.1" y1="209.46" x2="328.1" y2="214.46" stroke="#4A3D2A" stroke-opacity="0.36" stroke-width="1.1"></line>
<line x1="325.85" y1="219.08" x2="325.85" y2="224.08" stroke="#4A3D2A" stroke-opacity="0.37" stroke-width="1.1"></line>
<line x1="322.99" y1="228.54" x2="322.99" y2="233.54" stroke="#4A3D2A" stroke-opacity="0.37" stroke-width="1.1"></line>
<line x1="319.51" y1="237.79" x2="319.51" y2="242.79" stroke="#4A3D2A" stroke-opacity="0.37" stroke-width="1.1"></line>
<line x1="315.43" y1="246.79" x2="315.43" y2="251.79" stroke="#4A3D2A" stroke-opacity="0.37" stroke-width="1.1"></line>
<line x1="310.77" y1="255.5" x2="310.77" y2="260.5" stroke="#4A3D2A" stroke-opacity="0.38" stroke-width="1.1"></line>
<line x1="305.55" y1="263.89" x2="305.55" y2="268.89" stroke="#4A3D2A" stroke-opacity="0.38" stroke-width="1.1"></line>
<line x1="299.8" y1="271.92" x2="299.8" y2="276.92" stroke="#4A3D2A" stroke-opacity="0.38" stroke-width="1.1"></line>
<line x1="293.53" y1="279.56" x2="293.53" y2="284.56" stroke="#4A3D2A" stroke-opacity="0.38" stroke-width="1.1"></line>
<line x1="286.77" y1="286.77" x2="286.77" y2="291.77" stroke="#4A3D2A" stroke-opacity="0.38" stroke-width="1.1"></line>
<line x1="279.56" y1="293.53" x2="279.56" y2="298.53" stroke="#4A3D2A" stroke-opacity="0.38" stroke-width="1.1"></line>
<line x1="271.92" y1="299.8" x2="271.92" y2="304.8" stroke="#4A3D2A" stroke-opacity="0.38" stroke-width="1.1"></line>
<line x1="263.89" y1="305.55" x2="263.89" y2="310.55" stroke="#4A3D2A" stroke-opacity="0.38" stroke-width="1.1"></line>
<line x1="255.5" y1="310.77" x2="255.5" y2="315.77" stroke="#4A3D2A" stroke-opacity="0.38" stroke-width="1.1"></line>
<line x1="246.79" y1="315.43" x2="246.79" y2="320.43" stroke="#4A3D2A" stroke-opacity="0.37" stroke-width="1.1"></line>
<line x1="237.79" y1="319.51" x2="237.79" y2="324.51" stroke="#4A3D2A" stroke-opacity="0.37" stroke-width="1.1"></line>
<line x1="228.54" y1="322.99" x2="228.54" y2="327.99" stroke="#4A3D2A" stroke-opacity="0.37" stroke-width="1.1"></line>
<line x1="219.08" y1="325.85" x2="219.08" y2="330.85" stroke="#4A3D2A" stroke-opacity="0.37" stroke-width="1.1"></line>
<line x1="209.46" y1="328.1" x2="209.46" y2="333.1" stroke="#4A3D2A" stroke-opacity="0.36" stroke-width="1.1"></line>
<line x1="199.71" y1="329.71" x2="199.71" y2="334.71" stroke="#4A3D2A" stroke-opacity="0.36" stroke-width="1.1"></line>
<line x1="189.88" y1="330.68" x2="189.88" y2="335.68" stroke="#4A3D2A" stroke-opacity="0.36" stroke-width="1.1"></line>
<circle cx="180" cy="180" r="151" fill="#EEE7DA"></circle>
<line x1="180" y1="323.2" x2="180" y2="330.6" stroke="#4E412D" stroke-opacity="0.47" stroke-width="1.8"></line>
<line x1="176" y1="323.14" x2="175.8" y2="330.54" stroke="#FFFFFF" stroke-opacity="0.35" stroke-width="1.2"></line>
<line x1="170.63" y1="322.89" x2="170.15" y2="330.28" stroke="#4E412D" stroke-opacity="0.47" stroke-width="1.8"></line>
<line x1="166.65" y1="322.58" x2="165.96" y2="329.94" stroke="#FFFFFF" stroke-opacity="0.36" stroke-width="1.2"></line>
<line x1="161.31" y1="321.97" x2="160.34" y2="329.31" stroke="#4E412D" stroke-opacity="0.46" stroke-width="1.8"></line>
<line x1="157.35" y1="321.4" x2="156.18" y2="328.7" stroke="#FFFFFF" stroke-opacity="0.38" stroke-width="1.2"></line>
<line x1="152.06" y1="320.45" x2="150.62" y2="327.71" stroke="#4E412D" stroke-opacity="0.45" stroke-width="1.8"></line>
<line x1="148.15" y1="319.61" x2="146.51" y2="326.83" stroke="#FFFFFF" stroke-opacity="0.39" stroke-width="1.2"></line>
<line x1="142.94" y1="318.32" x2="141.02" y2="325.47" stroke="#4E412D" stroke-opacity="0.44" stroke-width="1.8"></line>
<line x1="139.09" y1="317.23" x2="136.98" y2="324.32" stroke="#FFFFFF" stroke-opacity="0.41" stroke-width="1.2"></line>
<line x1="133.97" y1="315.6" x2="131.59" y2="322.61" stroke="#4E412D" stroke-opacity="0.43" stroke-width="1.8"></line>
<line x1="130.2" y1="314.26" x2="127.63" y2="321.2" stroke="#FFFFFF" stroke-opacity="0.43" stroke-width="1.2"></line>
<line x1="125.2" y1="312.3" x2="122.37" y2="319.14" stroke="#4E412D" stroke-opacity="0.42" stroke-width="1.8"></line>
<line x1="121.53" y1="310.72" x2="118.51" y2="317.47" stroke="#FFFFFF" stroke-opacity="0.45" stroke-width="1.2"></line>
<line x1="116.66" y1="308.43" x2="113.39" y2="315.07" stroke="#4E412D" stroke-opacity="0.41" stroke-width="1.8"></line>
<line x1="113.1" y1="306.61" x2="109.65" y2="313.16" stroke="#FFFFFF" stroke-opacity="0.47" stroke-width="1.2"></line>
<line x1="108.4" y1="304.01" x2="104.7" y2="310.42" stroke="#4E412D" stroke-opacity="0.4" stroke-width="1.8"></line>
<line x1="104.97" y1="301.97" x2="101.09" y2="308.27" stroke="#FFFFFF" stroke-opacity="0.49" stroke-width="1.2"></line>
<line x1="100.44" y1="299.07" x2="96.33" y2="305.22" stroke="#4E412D" stroke-opacity="0.39" stroke-width="1.8"></line>
<line x1="97.15" y1="296.8" x2="92.87" y2="302.83" stroke="#FFFFFF" stroke-opacity="0.51" stroke-width="1.2"></line>
<line x1="92.83" y1="293.61" x2="88.32" y2="299.48" stroke="#4E412D" stroke-opacity="0.38" stroke-width="1.8"></line>
<line x1="89.69" y1="291.13" x2="85.02" y2="296.87" stroke="#FFFFFF" stroke-opacity="0.53" stroke-width="1.2"></line>
<line x1="85.58" y1="287.66" x2="80.7" y2="293.23" stroke="#4E412D" stroke-opacity="0.37" stroke-width="1.8"></line>
<line x1="82.61" y1="284.99" x2="77.58" y2="290.41" stroke="#FFFFFF" stroke-opacity="0.55" stroke-width="1.2"></line>
<line x1="78.74" y1="281.26" x2="73.51" y2="286.49" stroke="#4E412D" stroke-opacity="0.36" stroke-width="1.8"></line>
<line x1="75.95" y1="278.39" x2="70.58" y2="283.48" stroke="#FFFFFF" stroke-opacity="0.57" stroke-width="1.2"></line>
<line x1="72.34" y1="274.42" x2="66.77" y2="279.3" stroke="#4E412D" stroke-opacity="0.35" stroke-width="1.8"></line>
<line x1="69.74" y1="271.38" x2="64.04" y2="276.1" stroke="#FFFFFF" stroke-opacity="0.6" stroke-width="1.2"></line>
<line x1="66.39" y1="267.17" x2="60.52" y2="271.68" stroke="#4E412D" stroke-opacity="0.34" stroke-width="1.8"></line>
<line x1="64" y1="263.97" x2="58.01" y2="268.31" stroke="#FFFFFF" stroke-opacity="0.62" stroke-width="1.2"></line>
<line x1="60.93" y1="259.56" x2="54.78" y2="263.67" stroke="#4E412D" stroke-opacity="0.33" stroke-width="1.8"></line>
<line x1="58.76" y1="256.2" x2="52.49" y2="260.14" stroke="#FFFFFF" stroke-opacity="0.64" stroke-width="1.2"></line>
<line x1="55.99" y1="251.6" x2="49.58" y2="255.3" stroke="#4E412D" stroke-opacity="0.32" stroke-width="1.8"></line>
<line x1="54.03" y1="248.11" x2="47.52" y2="251.63" stroke="#FFFFFF" stroke-opacity="0.66" stroke-width="1.2"></line>
<line x1="51.57" y1="243.34" x2="44.93" y2="246.61" stroke="#4E412D" stroke-opacity="0.31" stroke-width="1.8"></line>
<line x1="49.85" y1="239.73" x2="43.12" y2="242.81" stroke="#FFFFFF" stroke-opacity="0.68" stroke-width="1.2"></line>
<line x1="47.7" y1="234.8" x2="40.86" y2="237.63" stroke="#4E412D" stroke-opacity="0.3" stroke-width="1.8"></line>
<line x1="46.22" y1="231.08" x2="39.31" y2="233.72" stroke="#FFFFFF" stroke-opacity="0.7" stroke-width="1.2"></line>
<line x1="44.4" y1="226.03" x2="37.39" y2="228.41" stroke="#4E412D" stroke-opacity="0.29" stroke-width="1.8"></line>
<line x1="43.17" y1="222.23" x2="36.1" y2="224.41" stroke="#FFFFFF" stroke-opacity="0.72" stroke-width="1.2"></line>
<line x1="41.68" y1="217.06" x2="34.53" y2="218.98" stroke="#4E412D" stroke-opacity="0.28" stroke-width="1.8"></line>
<line x1="40.7" y1="213.19" x2="33.5" y2="214.9" stroke="#FFFFFF" stroke-opacity="0.74" stroke-width="1.2"></line>
<line x1="39.55" y1="207.94" x2="32.29" y2="209.38" stroke="#4E412D" stroke-opacity="0.27" stroke-width="1.8"></line>
<line x1="38.83" y1="204" x2="31.53" y2="205.24" stroke="#FFFFFF" stroke-opacity="0.76" stroke-width="1.2"></line>
<line x1="38.03" y1="198.69" x2="30.69" y2="199.66" stroke="#4E412D" stroke-opacity="0.26" stroke-width="1.8"></line>
<line x1="37.56" y1="194.72" x2="30.2" y2="195.48" stroke="#FFFFFF" stroke-opacity="0.77" stroke-width="1.2"></line>
<line x1="37.11" y1="189.37" x2="29.72" y2="189.85" stroke="#4E412D" stroke-opacity="0.25" stroke-width="1.8"></line>
<line x1="36.9" y1="185.37" x2="29.51" y2="185.65" stroke="#FFFFFF" stroke-opacity="0.79" stroke-width="1.2"></line>
<line x1="36.8" y1="180" x2="29.4" y2="180" stroke="#4E412D" stroke-opacity="0.25" stroke-width="1.8"></line>
<line x1="36.86" y1="176" x2="29.46" y2="175.8" stroke="#FFFFFF" stroke-opacity="0.8" stroke-width="1.2"></line>
<line x1="37.11" y1="170.63" x2="29.72" y2="170.15" stroke="#4E412D" stroke-opacity="0.24" stroke-width="1.8"></line>
<line x1="37.42" y1="166.65" x2="30.06" y2="165.96" stroke="#FFFFFF" stroke-opacity="0.82" stroke-width="1.2"></line>
<line x1="38.03" y1="161.31" x2="30.69" y2="160.34" stroke="#4E412D" stroke-opacity="0.23" stroke-width="1.8"></line>
<line x1="38.6" y1="157.35" x2="31.3" y2="156.18" stroke="#FFFFFF" stroke-opacity="0.83" stroke-width="1.2"></line>
<line x1="39.55" y1="152.06" x2="32.29" y2="150.62" stroke="#4E412D" stroke-opacity="0.23" stroke-width="1.8"></line>
<line x1="40.39" y1="148.15" x2="33.17" y2="146.51" stroke="#FFFFFF" stroke-opacity="0.85" stroke-width="1.2"></line>
<line x1="41.68" y1="142.94" x2="34.53" y2="141.02" stroke="#4E412D" stroke-opacity="0.22" stroke-width="1.8"></line>
<line x1="42.77" y1="139.09" x2="35.68" y2="136.98" stroke="#FFFFFF" stroke-opacity="0.86" stroke-width="1.2"></line>
<line x1="44.4" y1="133.97" x2="37.39" y2="131.59" stroke="#4E412D" stroke-opacity="0.22" stroke-width="1.8"></line>
<line x1="45.74" y1="130.2" x2="38.8" y2="127.63" stroke="#FFFFFF" stroke-opacity="0.87" stroke-width="1.2"></line>
<line x1="47.7" y1="125.2" x2="40.86" y2="122.37" stroke="#4E412D" stroke-opacity="0.21" stroke-width="1.8"></line>
<line x1="49.28" y1="121.53" x2="42.53" y2="118.51" stroke="#FFFFFF" stroke-opacity="0.88" stroke-width="1.2"></line>
<line x1="51.57" y1="116.66" x2="44.93" y2="113.39" stroke="#4E412D" stroke-opacity="0.21" stroke-width="1.8"></line>
<line x1="53.39" y1="113.1" x2="46.84" y2="109.65" stroke="#FFFFFF" stroke-opacity="0.88" stroke-width="1.2"></line>
<line x1="55.99" y1="108.4" x2="49.58" y2="104.7" stroke="#4E412D" stroke-opacity="0.21" stroke-width="1.8"></line>
<line x1="58.03" y1="104.97" x2="51.73" y2="101.09" stroke="#FFFFFF" stroke-opacity="0.89" stroke-width="1.2"></line>
<line x1="60.93" y1="100.44" x2="54.78" y2="96.33" stroke="#4E412D" stroke-opacity="0.2" stroke-width="1.8"></line>
<line x1="63.2" y1="97.15" x2="57.17" y2="92.87" stroke="#FFFFFF" stroke-opacity="0.89" stroke-width="1.2"></line>
<line x1="66.39" y1="92.83" x2="60.52" y2="88.32" stroke="#4E412D" stroke-opacity="0.2" stroke-width="1.8"></line>
<line x1="68.87" y1="89.69" x2="63.13" y2="85.02" stroke="#FFFFFF" stroke-opacity="0.9" stroke-width="1.2"></line>
<line x1="72.34" y1="85.58" x2="66.77" y2="80.7" stroke="#4E412D" stroke-opacity="0.2" stroke-width="1.8"></line>
<line x1="75.01" y1="82.61" x2="69.59" y2="77.58" stroke="#FFFFFF" stroke-opacity="0.9" stroke-width="1.2"></line>
<line x1="78.74" y1="78.74" x2="73.51" y2="73.51" stroke="#4E412D" stroke-opacity="0.2" stroke-width="1.8"></line>
<line x1="81.61" y1="75.95" x2="76.52" y2="70.58" stroke="#FFFFFF" stroke-opacity="0.9" stroke-width="1.2"></line>
<line x1="85.58" y1="72.34" x2="80.7" y2="66.77" stroke="#4E412D" stroke-opacity="0.2" stroke-width="1.8"></line>
<line x1="88.62" y1="69.74" x2="83.9" y2="64.04" stroke="#FFFFFF" stroke-opacity="0.9" stroke-width="1.2"></line>
<line x1="92.83" y1="66.39" x2="88.32" y2="60.52" stroke="#4E412D" stroke-opacity="0.2" stroke-width="1.8"></line>
<line x1="96.03" y1="64" x2="91.69" y2="58.01" stroke="#FFFFFF" stroke-opacity="0.9" stroke-width="1.2"></line>
<line x1="100.44" y1="60.93" x2="96.33" y2="54.78" stroke="#4E412D" stroke-opacity="0.2" stroke-width="1.8"></line>
<line x1="103.8" y1="58.76" x2="99.86" y2="52.49" stroke="#FFFFFF" stroke-opacity="0.89" stroke-width="1.2"></line>
<line x1="108.4" y1="55.99" x2="104.7" y2="49.58" stroke="#4E412D" stroke-opacity="0.21" stroke-width="1.8"></line>
<line x1="111.89" y1="54.03" x2="108.37" y2="47.52" stroke="#FFFFFF" stroke-opacity="0.89" stroke-width="1.2"></line>
<line x1="116.66" y1="51.57" x2="113.39" y2="44.93" stroke="#4E412D" stroke-opacity="0.21" stroke-width="1.8"></line>
<line x1="120.27" y1="49.85" x2="117.19" y2="43.12" stroke="#FFFFFF" stroke-opacity="0.88" stroke-width="1.2"></line>
<line x1="125.2" y1="47.7" x2="122.37" y2="40.86" stroke="#4E412D" stroke-opacity="0.21" stroke-width="1.8"></line>
<line x1="128.92" y1="46.22" x2="126.28" y2="39.31" stroke="#FFFFFF" stroke-opacity="0.88" stroke-width="1.2"></line>
<line x1="133.97" y1="44.4" x2="131.59" y2="37.39" stroke="#4E412D" stroke-opacity="0.22" stroke-width="1.8"></line>
<line x1="137.77" y1="43.17" x2="135.59" y2="36.1" stroke="#FFFFFF" stroke-opacity="0.87" stroke-width="1.2"></line>
<line x1="142.94" y1="41.68" x2="141.02" y2="34.53" stroke="#4E412D" stroke-opacity="0.22" stroke-width="1.8"></line>
<line x1="146.81" y1="40.7" x2="145.1" y2="33.5" stroke="#FFFFFF" stroke-opacity="0.86" stroke-width="1.2"></line>
<line x1="152.06" y1="39.55" x2="150.62" y2="32.29" stroke="#4E412D" stroke-opacity="0.23" stroke-width="1.8"></line>
<line x1="156" y1="38.83" x2="154.76" y2="31.53" stroke="#FFFFFF" stroke-opacity="0.85" stroke-width="1.2"></line>
<line x1="161.31" y1="38.03" x2="160.34" y2="30.69" stroke="#4E412D" stroke-opacity="0.23" stroke-width="1.8"></line>
<line x1="165.28" y1="37.56" x2="164.52" y2="30.2" stroke="#FFFFFF" stroke-opacity="0.83" stroke-width="1.2"></line>
<line x1="170.63" y1="37.11" x2="170.15" y2="29.72" stroke="#4E412D" stroke-opacity="0.24" stroke-width="1.8"></line>
<line x1="174.63" y1="36.9" x2="174.35" y2="29.51" stroke="#FFFFFF" stroke-opacity="0.82" stroke-width="1.2"></line>
<line x1="180" y1="36.8" x2="180" y2="29.4" stroke="#4E412D" stroke-opacity="0.25" stroke-width="1.8"></line>
<line x1="184" y1="36.86" x2="184.2" y2="29.46" stroke="#FFFFFF" stroke-opacity="0.8" stroke-width="1.2"></line>
<line x1="189.37" y1="37.11" x2="189.85" y2="29.72" stroke="#4E412D" stroke-opacity="0.25" stroke-width="1.8"></line>
<line x1="193.35" y1="37.42" x2="194.04" y2="30.06" stroke="#FFFFFF" stroke-opacity="0.79" stroke-width="1.2"></line>
<line x1="198.69" y1="38.03" x2="199.66" y2="30.69" stroke="#4E412D" stroke-opacity="0.26" stroke-width="1.8"></line>
<line x1="202.65" y1="38.6" x2="203.82" y2="31.3" stroke="#FFFFFF" stroke-opacity="0.77" stroke-width="1.2"></line>
<line x1="207.94" y1="39.55" x2="209.38" y2="32.29" stroke="#4E412D" stroke-opacity="0.27" stroke-width="1.8"></line>
<line x1="211.85" y1="40.39" x2="213.49" y2="33.17" stroke="#FFFFFF" stroke-opacity="0.76" stroke-width="1.2"></line>
<line x1="217.06" y1="41.68" x2="218.98" y2="34.53" stroke="#4E412D" stroke-opacity="0.28" stroke-width="1.8"></line>
<line x1="220.91" y1="42.77" x2="223.02" y2="35.68" stroke="#FFFFFF" stroke-opacity="0.74" stroke-width="1.2"></line>
<line x1="226.03" y1="44.4" x2="228.41" y2="37.39" stroke="#4E412D" stroke-opacity="0.29" stroke-width="1.8"></line>
<line x1="229.8" y1="45.74" x2="232.37" y2="38.8" stroke="#FFFFFF" stroke-opacity="0.72" stroke-width="1.2"></line>
<line x1="234.8" y1="47.7" x2="237.63" y2="40.86" stroke="#4E412D" stroke-opacity="0.3" stroke-width="1.8"></line>
<line x1="238.47" y1="49.28" x2="241.49" y2="42.53" stroke="#FFFFFF" stroke-opacity="0.7" stroke-width="1.2"></line>
<line x1="243.34" y1="51.57" x2="246.61" y2="44.93" stroke="#4E412D" stroke-opacity="0.31" stroke-width="1.8"></line>
<line x1="246.9" y1="53.39" x2="250.35" y2="46.84" stroke="#FFFFFF" stroke-opacity="0.68" stroke-width="1.2"></line>
<line x1="251.6" y1="55.99" x2="255.3" y2="49.58" stroke="#4E412D" stroke-opacity="0.32" stroke-width="1.8"></line>
<line x1="255.03" y1="58.03" x2="258.91" y2="51.73" stroke="#FFFFFF" stroke-opacity="0.66" stroke-width="1.2"></line>
<line x1="259.56" y1="60.93" x2="263.67" y2="54.78" stroke="#4E412D" stroke-opacity="0.33" stroke-width="1.8"></line>
<line x1="262.85" y1="63.2" x2="267.13" y2="57.17" stroke="#FFFFFF" stroke-opacity="0.64" stroke-width="1.2"></line>
<line x1="267.17" y1="66.39" x2="271.68" y2="60.52" stroke="#4E412D" stroke-opacity="0.34" stroke-width="1.8"></line>
<line x1="270.31" y1="68.87" x2="274.98" y2="63.13" stroke="#FFFFFF" stroke-opacity="0.62" stroke-width="1.2"></line>
<line x1="274.42" y1="72.34" x2="279.3" y2="66.77" stroke="#4E412D" stroke-opacity="0.35" stroke-width="1.8"></line>
<line x1="277.39" y1="75.01" x2="282.42" y2="69.59" stroke="#FFFFFF" stroke-opacity="0.6" stroke-width="1.2"></line>
<line x1="281.26" y1="78.74" x2="286.49" y2="73.51" stroke="#4E412D" stroke-opacity="0.36" stroke-width="1.8"></line>
<line x1="284.05" y1="81.61" x2="289.42" y2="76.52" stroke="#FFFFFF" stroke-opacity="0.57" stroke-width="1.2"></line>
<line x1="287.66" y1="85.58" x2="293.23" y2="80.7" stroke="#4E412D" stroke-opacity="0.37" stroke-width="1.8"></line>
<line x1="290.26" y1="88.62" x2="295.96" y2="83.9" stroke="#FFFFFF" stroke-opacity="0.55" stroke-width="1.2"></line>
<line x1="293.61" y1="92.83" x2="299.48" y2="88.32" stroke="#4E412D" stroke-opacity="0.38" stroke-width="1.8"></line>
<line x1="296" y1="96.03" x2="301.99" y2="91.69" stroke="#FFFFFF" stroke-opacity="0.53" stroke-width="1.2"></line>
<line x1="299.07" y1="100.44" x2="305.22" y2="96.33" stroke="#4E412D" stroke-opacity="0.39" stroke-width="1.8"></line>
<line x1="301.24" y1="103.8" x2="307.51" y2="99.86" stroke="#FFFFFF" stroke-opacity="0.51" stroke-width="1.2"></line>
<line x1="304.01" y1="108.4" x2="310.42" y2="104.7" stroke="#4E412D" stroke-opacity="0.4" stroke-width="1.8"></line>
<line x1="305.97" y1="111.89" x2="312.48" y2="108.37" stroke="#FFFFFF" stroke-opacity="0.49" stroke-width="1.2"></line>
<line x1="308.43" y1="116.66" x2="315.07" y2="113.39" stroke="#4E412D" stroke-opacity="0.41" stroke-width="1.8"></line>
<line x1="310.15" y1="120.27" x2="316.88" y2="117.19" stroke="#FFFFFF" stroke-opacity="0.47" stroke-width="1.2"></line>
<line x1="312.3" y1="125.2" x2="319.14" y2="122.37" stroke="#4E412D" stroke-opacity="0.42" stroke-width="1.8"></line>
<line x1="313.78" y1="128.92" x2="320.69" y2="126.28" stroke="#FFFFFF" stroke-opacity="0.45" stroke-width="1.2"></line>
<line x1="315.6" y1="133.97" x2="322.61" y2="131.59" stroke="#4E412D" stroke-opacity="0.43" stroke-width="1.8"></line>
<line x1="316.83" y1="137.77" x2="323.9" y2="135.59" stroke="#FFFFFF" stroke-opacity="0.43" stroke-width="1.2"></line>
<line x1="318.32" y1="142.94" x2="325.47" y2="141.02" stroke="#4E412D" stroke-opacity="0.44" stroke-width="1.8"></line>
<line x1="319.3" y1="146.81" x2="326.5" y2="145.1" stroke="#FFFFFF" stroke-opacity="0.41" stroke-width="1.2"></line>
<line x1="320.45" y1="152.06" x2="327.71" y2="150.62" stroke="#4E412D" stroke-opacity="0.45" stroke-width="1.8"></line>
<line x1="321.17" y1="156" x2="328.47" y2="154.76" stroke="#FFFFFF" stroke-opacity="0.39" stroke-width="1.2"></line>
<line x1="321.97" y1="161.31" x2="329.31" y2="160.34" stroke="#4E412D" stroke-opacity="0.46" stroke-width="1.8"></line>
<line x1="322.44" y1="165.28" x2="329.8" y2="164.52" stroke="#FFFFFF" stroke-opacity="0.38" stroke-width="1.2"></line>
<line x1="322.89" y1="170.63" x2="330.28" y2="170.15" stroke="#4E412D" stroke-opacity="0.47" stroke-width="1.8"></line>
<line x1="323.1" y1="174.63" x2="330.49" y2="174.35" stroke="#FFFFFF" stroke-opacity="0.36" stroke-width="1.2"></line>
<line x1="323.2" y1="180" x2="330.6" y2="180" stroke="#4E412D" stroke-opacity="0.47" stroke-width="1.8"></line>
<line x1="323.14" y1="184" x2="330.54" y2="184.2" stroke="#FFFFFF" stroke-opacity="0.35" stroke-width="1.2"></line>
<line x1="322.89" y1="189.37" x2="330.28" y2="189.85" stroke="#4E412D" stroke-opacity="0.48" stroke-width="1.8"></line>
<line x1="322.58" y1="193.35" x2="329.94" y2="194.04" stroke="#FFFFFF" stroke-opacity="0.33" stroke-width="1.2"></line>
<line x1="321.97" y1="198.69" x2="329.31" y2="199.66" stroke="#4E412D" stroke-opacity="0.49" stroke-width="1.8"></line>
<line x1="321.4" y1="202.65" x2="328.7" y2="203.82" stroke="#FFFFFF" stroke-opacity="0.32" stroke-width="1.2"></line>
<line x1="320.45" y1="207.94" x2="327.71" y2="209.38" stroke="#4E412D" stroke-opacity="0.49" stroke-width="1.8"></line>
<line x1="319.61" y1="211.85" x2="326.83" y2="213.49" stroke="#FFFFFF" stroke-opacity="0.3" stroke-width="1.2"></line>
<line x1="318.32" y1="217.06" x2="325.47" y2="218.98" stroke="#4E412D" stroke-opacity="0.5" stroke-width="1.8"></line>
<line x1="317.23" y1="220.91" x2="324.32" y2="223.02" stroke="#FFFFFF" stroke-opacity="0.29" stroke-width="1.2"></line>
<line x1="315.6" y1="226.03" x2="322.61" y2="228.41" stroke="#4E412D" stroke-opacity="0.5" stroke-width="1.8"></line>
<line x1="314.26" y1="229.8" x2="321.2" y2="232.37" stroke="#FFFFFF" stroke-opacity="0.28" stroke-width="1.2"></line>
<line x1="312.3" y1="234.8" x2="319.14" y2="237.63" stroke="#4E412D" stroke-opacity="0.51" stroke-width="1.8"></line>
<line x1="310.72" y1="238.47" x2="317.47" y2="241.49" stroke="#FFFFFF" stroke-opacity="0.27" stroke-width="1.2"></line>
<line x1="308.43" y1="243.34" x2="315.07" y2="246.61" stroke="#4E412D" stroke-opacity="0.51" stroke-width="1.8"></line>
<line x1="306.61" y1="246.9" x2="313.16" y2="250.35" stroke="#FFFFFF" stroke-opacity="0.27" stroke-width="1.2"></line>
<line x1="304.01" y1="251.6" x2="310.42" y2="255.3" stroke="#4E412D" stroke-opacity="0.51" stroke-width="1.8"></line>
<line x1="301.97" y1="255.03" x2="308.27" y2="258.91" stroke="#FFFFFF" stroke-opacity="0.26" stroke-width="1.2"></line>
<line x1="299.07" y1="259.56" x2="305.22" y2="263.67" stroke="#4E412D" stroke-opacity="0.52" stroke-width="1.8"></line>
<line x1="296.8" y1="262.85" x2="302.83" y2="267.13" stroke="#FFFFFF" stroke-opacity="0.26" stroke-width="1.2"></line>
<line x1="293.61" y1="267.17" x2="299.48" y2="271.68" stroke="#4E412D" stroke-opacity="0.52" stroke-width="1.8"></line>
<line x1="291.13" y1="270.31" x2="296.87" y2="274.98" stroke="#FFFFFF" stroke-opacity="0.25" stroke-width="1.2"></line>
<line x1="287.66" y1="274.42" x2="293.23" y2="279.3" stroke="#4E412D" stroke-opacity="0.52" stroke-width="1.8"></line>
<line x1="284.99" y1="277.39" x2="290.41" y2="282.42" stroke="#FFFFFF" stroke-opacity="0.25" stroke-width="1.2"></line>
<line x1="281.26" y1="281.26" x2="286.49" y2="286.49" stroke="#4E412D" stroke-opacity="0.52" stroke-width="1.8"></line>
<line x1="278.39" y1="284.05" x2="283.48" y2="289.42" stroke="#FFFFFF" stroke-opacity="0.25" stroke-width="1.2"></line>
<line x1="274.42" y1="287.66" x2="279.3" y2="293.23" stroke="#4E412D" stroke-opacity="0.52" stroke-width="1.8"></line>
<line x1="271.38" y1="290.26" x2="276.1" y2="295.96" stroke="#FFFFFF" stroke-opacity="0.25" stroke-width="1.2"></line>
<line x1="267.17" y1="293.61" x2="271.68" y2="299.48" stroke="#4E412D" stroke-opacity="0.52" stroke-width="1.8"></line>
<line x1="263.97" y1="296" x2="268.31" y2="301.99" stroke="#FFFFFF" stroke-opacity="0.25" stroke-width="1.2"></line>
<line x1="259.56" y1="299.07" x2="263.67" y2="305.22" stroke="#4E412D" stroke-opacity="0.52" stroke-width="1.8"></line>
<line x1="256.2" y1="301.24" x2="260.14" y2="307.51" stroke="#FFFFFF" stroke-opacity="0.26" stroke-width="1.2"></line>
<line x1="251.6" y1="304.01" x2="255.3" y2="310.42" stroke="#4E412D" stroke-opacity="0.51" stroke-width="1.8"></line>
<line x1="248.11" y1="305.97" x2="251.63" y2="312.48" stroke="#FFFFFF" stroke-opacity="0.26" stroke-width="1.2"></line>
<line x1="243.34" y1="308.43" x2="246.61" y2="315.07" stroke="#4E412D" stroke-opacity="0.51" stroke-width="1.8"></line>
<line x1="239.73" y1="310.15" x2="242.81" y2="316.88" stroke="#FFFFFF" stroke-opacity="0.27" stroke-width="1.2"></line>
<line x1="234.8" y1="312.3" x2="237.63" y2="319.14" stroke="#4E412D" stroke-opacity="0.51" stroke-width="1.8"></line>
<line x1="231.08" y1="313.78" x2="233.72" y2="320.69" stroke="#FFFFFF" stroke-opacity="0.27" stroke-width="1.2"></line>
<line x1="226.03" y1="315.6" x2="228.41" y2="322.61" stroke="#4E412D" stroke-opacity="0.5" stroke-width="1.8"></line>
<line x1="222.23" y1="316.83" x2="224.41" y2="323.9" stroke="#FFFFFF" stroke-opacity="0.28" stroke-width="1.2"></line>
<line x1="217.06" y1="318.32" x2="218.98" y2="325.47" stroke="#4E412D" stroke-opacity="0.5" stroke-width="1.8"></line>
<line x1="213.19" y1="319.3" x2="214.9" y2="326.5" stroke="#FFFFFF" stroke-opacity="0.29" stroke-width="1.2"></line>
<line x1="207.94" y1="320.45" x2="209.38" y2="327.71" stroke="#4E412D" stroke-opacity="0.49" stroke-width="1.8"></line>
<line x1="204" y1="321.17" x2="205.24" y2="328.47" stroke="#FFFFFF" stroke-opacity="0.3" stroke-width="1.2"></line>
<line x1="198.69" y1="321.97" x2="199.66" y2="329.31" stroke="#4E412D" stroke-opacity="0.49" stroke-width="1.8"></line>
<line x1="194.72" y1="322.44" x2="195.48" y2="329.8" stroke="#FFFFFF" stroke-opacity="0.32" stroke-width="1.2"></line>
<line x1="189.37" y1="322.89" x2="189.85" y2="330.28" stroke="#4E412D" stroke-opacity="0.48" stroke-width="1.8"></line>
<line x1="185.37" y1="323.1" x2="185.65" y2="330.49" stroke="#FFFFFF" stroke-opacity="0.33" stroke-width="1.2"></line>
<circle cx="180" cy="180" r="150.4" fill="none" stroke="url(#w1sBevel)" stroke-width="1.2"></circle>
<circle cx="180" cy="180" r="143" fill="none" stroke="#B8AC97" stroke-width="1.2"></circle>
<circle cx="180" cy="180" r="142.4" fill="url(#w1sFace)"></circle>
<circle cx="180" cy="180" r="142.4" fill="#000000" filter="url(#w1sGrain)" opacity="0.8"></circle>
<g transform="rotate(-180 180 180)">
<line x1="180" y1="66" x2="180" y2="42.5" stroke="#1D1A16" stroke-width="3.4"></line>
<line x1="205.78" y1="58.71" x2="208.59" y2="45.5" stroke="#1D1A16" stroke-width="1.9"></line>
<line x1="230.44" y1="66.72" x2="235.93" y2="54.39" stroke="#1D1A16" stroke-width="1.9"></line>
<line x1="252.89" y1="79.68" x2="260.82" y2="68.76" stroke="#1D1A16" stroke-width="1.9"></line>
<line x1="272.15" y1="97.03" x2="282.18" y2="87.99" stroke="#1D1A16" stroke-width="1.9"></line>
<line x1="278.73" y1="123" x2="299.08" y2="111.25" stroke="#1D1A16" stroke-width="3.4"></line>
<line x1="297.93" y1="141.68" x2="310.77" y2="137.51" stroke="#1D1A16" stroke-width="1.9"></line>
<line x1="303.32" y1="167.04" x2="316.75" y2="165.63" stroke="#1D1A16" stroke-width="1.9"></line>
<line x1="303.32" y1="192.96" x2="316.75" y2="194.37" stroke="#1D1A16" stroke-width="1.9"></line>
<line x1="297.93" y1="218.32" x2="310.77" y2="222.49" stroke="#1D1A16" stroke-width="1.9"></line>
<line x1="278.73" y1="237" x2="299.08" y2="248.75" stroke="#1D1A16" stroke-width="3.4"></line>
<line x1="272.15" y1="262.97" x2="282.18" y2="272.01" stroke="#1D1A16" stroke-width="1.9"></line>
<line x1="252.89" y1="280.32" x2="260.82" y2="291.24" stroke="#1D1A16" stroke-width="1.9"></line>
<line x1="230.44" y1="293.28" x2="235.93" y2="305.61" stroke="#1D1A16" stroke-width="1.9"></line>
<line x1="205.78" y1="301.29" x2="208.59" y2="314.5" stroke="#1D1A16" stroke-width="1.9"></line>
<line x1="180" y1="294" x2="180" y2="317.5" stroke="#1D1A16" stroke-width="3.4"></line>
<line x1="154.22" y1="301.29" x2="151.41" y2="314.5" stroke="#1D1A16" stroke-width="1.9"></line>
<line x1="129.56" y1="293.28" x2="124.07" y2="305.61" stroke="#1D1A16" stroke-width="1.9"></line>
<line x1="107.11" y1="280.32" x2="99.18" y2="291.24" stroke="#1D1A16" stroke-width="1.9"></line>
<line x1="87.85" y1="262.97" x2="77.82" y2="272.01" stroke="#1D1A16" stroke-width="1.9"></line>
<line x1="81.27" y1="237" x2="60.92" y2="248.75" stroke="#1D1A16" stroke-width="3.4"></line>
<line x1="62.07" y1="218.32" x2="49.23" y2="222.49" stroke="#1D1A16" stroke-width="1.9"></line>
<line x1="56.68" y1="192.96" x2="43.25" y2="194.37" stroke="#1D1A16" stroke-width="1.9"></line>
<line x1="56.68" y1="167.04" x2="43.25" y2="165.63" stroke="#1D1A16" stroke-width="1.9"></line>
<line x1="62.07" y1="141.68" x2="49.23" y2="137.51" stroke="#1D1A16" stroke-width="1.9"></line>
<line x1="81.27" y1="123" x2="60.92" y2="111.25" stroke="#1D1A16" stroke-width="3.4"></line>
<line x1="87.85" y1="97.03" x2="77.82" y2="87.99" stroke="#1D1A16" stroke-width="1.9"></line>
<line x1="107.11" y1="79.68" x2="99.18" y2="68.76" stroke="#1D1A16" stroke-width="1.9"></line>
<line x1="129.56" y1="66.72" x2="124.07" y2="54.39" stroke="#1D1A16" stroke-width="1.9"></line>
<line x1="154.22" y1="58.71" x2="151.41" y2="45.5" stroke="#1D1A16" stroke-width="1.9"></line>
<g font-family="Chivo, Futura, sans-serif" font-size="27" font-weight="500" fill="#1D1A16" text-anchor="middle" dominant-baseline="central">
<text x="180" y="84" transform="rotate(0 180 84)">0</text>
<text x="263.14" y="132" transform="rotate(60 263.14 132)">5</text>
<text x="263.14" y="228" transform="rotate(120 263.14 228)">10</text>
<text x="180" y="276" transform="rotate(180 180 276)">15</text>
<text x="96.86" y="228" transform="rotate(240 96.86 228)">20</text>
<text x="96.86" y="132" transform="rotate(300 96.86 132)">25</text>
</g>
</g>
<circle cx="180" cy="180" r="142.4" fill="url(#w1sFaceAO)"></circle>
<g filter="url(#w1sBlur5)"><g transform="translate(6 12)"><g transform="rotate(-180 180 180)"><rect x="96" y="157" width="168" height="46" rx="23" fill="#3B2F1E" fill-opacity="0.34"></rect></g></g></g>
<g transform="translate(0 7)"><g transform="rotate(-180 180 180)"><rect x="96" y="157" width="168" height="46" rx="23" fill="url(#w1sGripSide)"></rect></g></g>
<g transform="rotate(-180 180 180)">
<rect x="96" y="157" width="168" height="46" rx="23" fill="url(#w1sGripTop)"></rect>
<rect x="110" y="186" width="140" height="6" rx="3" fill="#FFFFFF" fill-opacity="0.67" filter="url(#w1sBlur2)"></rect>
<rect x="96.6" y="157.6" width="166.8" height="44.8" rx="22.4" fill="none" stroke="url(#w1sGripRim)" stroke-width="1.2"></rect>
</g>
<ellipse cx="118" cy="104" rx="84" ry="42" transform="rotate(-38 118 104)" fill="#FFFFFF" fill-opacity="0.34" filter="url(#w1sBlur12)"></ellipse>
<path d="M33.81 164.63 A147 147 0 0 1 144.44 37.37" fill="none" stroke="#FFFFFF" stroke-width="1.6" stroke-linecap="round" stroke-opacity="0.85"></path>
<path d="M168 15 Q168 11 172 11 L188 11 Q192 11 192 15 L192 29 L180 46 L168 29 Z" fill="#2A1A10" fill-opacity="0.45" transform="translate(3 7)" filter="url(#w1sBlur2)"></path>
<path d="M168 15 Q168 11 172 11 L188 11 Q192 11 192 15 L192 29 L180 46 L168 29 Z" fill="url(#w1sPointer)"></path>
<path d="M169 16 L169 28.6 L178.5 42" fill="none" stroke="#FFFFFF" stroke-opacity="0.55" stroke-width="1" stroke-linecap="round"></path>
<circle cx="180" cy="20" r="3.8" fill="url(#w1sRivet)"></circle>
</g>
<g id="unlock-button">
<rect x="95" y="698.02" width="200" height="54" rx="27" fill="#782814" fill-opacity="0.25" filter="url(#hShadow7)"/>
<rect x="95" y="693.02" width="200" height="54" rx="27" fill="#97291A"/>
<rect x="95" y="690.02" width="200" height="54" rx="27" fill="url(#hBtn)"/>
<path d="M116 690.52 H274" stroke="#FFFFFF" stroke-opacity="0.35" stroke-width="1"/>
<text x="135.28" y="723.02" font-family="Chivo" font-size="17" font-weight="600" letter-spacing="0.34" fill="#FFFDF8">Unlock 15 min</text>
</g>
<g id="footer">
<text x="24.00" y="807.00" font-family="Chivo" font-size="12" font-weight="600" letter-spacing="1.68" fill="#7A7163">TURN TO SET</text>
<text x="225.44" y="807.00" font-family="Chivo" font-size="12" font-weight="600" letter-spacing="1.68" fill="#7A7163">LEAVES 0:57 TODAY</text>
</g>
</svg>
